# xmcd
#
# Track frame offsets:
#	150
#	13233
#	25647
#	36429
#	48546
#	65478
#	82233
#	91251
#	102168
#	113979
#	125235
#	139248
#	150414
#	160815
#	171939
#	183651
#	197172
#	212076
#	225981
#	233490
#
# Disc length: 3235 seconds
#
# Revision: 0
# Processed by: cddbd v1.5.2PL0 Copyright (c) Steve Scherf et al.
# Submitted via: audiograbber 1.82.02
#
DISCID=140ca114
DTITLE=Compilation - Maxi 3CD Country CD 2
DYEAR=2004
DGENRE=Country
TTITLE0=Kenny Rogers - Ruby don't take your love to town
TTITLE1=Frankie Laine - Hight noon
TTITLE2=Dolly Parton - It was not God who made Honky Tonk Angels
TTITLE3=Freddy Fender - Before the next teardrop falls
TTITLE4=Lynn Anderson - Blue Bayou
TTITLE5=Mickey Gilley - C.C.Rider
TTITLE6=Roger Miller - Chug a lug
TTITLE7=Waylon Jennings - Dream Baby
TTITLE8=Conway Twitty - Linda on my mind
TTITLE9=Faron Young - Your cheatin heart
TTITLE10=Tex Ritter - Fools paradise
TTITLE11=Sandy Posey - I will follow him
TTITLE12=Patsy Cline - Three cigarettes in an ashtray
TTITLE13=Jack Greene - There goes my everything
TTITLE14=Don Gibson - Give myself a party
TTITLE15=Willie Nelson - The last letter
TTITLE16=Juice Newton - Queen of hearts
TTITLE17=Johnny Paycheck - Someone to give my love to
TTITLE18=Merle Haggard - I am a lonesome fugitive
TTITLE19=Mickey Gilley - Suzie Q
EXTD=
EXTT0=
EXTT1=
EXTT2=
EXTT3=
EXTT4=
EXTT5=
EXTT6=
EXTT7=
EXTT8=
EXTT9=
EXTT10=
EXTT11=
EXTT12=
EXTT13=
EXTT14=
EXTT15=
EXTT16=
EXTT17=
EXTT18=
EXTT19=
PLAYORDER=
